<mxfile host="app.diagrams.net" agent="Mozilla/5.0 (Windows NT 10.0; Win64; x64) AppleWebKit/537.36 (KHTML, like Gecko) Chrome/133.0.0.0 Safari/537.36" version="26.1.0">
  <diagram id="C5RBs43oDa-KdzZeNtuy" name="Page-1">
    <mxGraphModel dx="880" dy="1637" grid="1" gridSize="10" guides="1" tooltips="1" connect="1" arrows="1" fold="1" page="1" pageScale="1" pageWidth="827" pageHeight="1169" math="0" shadow="0">
      <root>
        <mxCell id="WIyWlLk6GJQsqaUBKTNV-0" />
        <mxCell id="WIyWlLk6GJQsqaUBKTNV-1" parent="WIyWlLk6GJQsqaUBKTNV-0" />
        <mxCell id="yadymEA7RUQ70bokF_j9-36" value="-Lector de Apis" style="swimlane;fontStyle=1;align=center;verticalAlign=top;childLayout=stackLayout;horizontal=1;startSize=26;horizontalStack=0;resizeParent=1;resizeParentMax=0;resizeLast=0;collapsible=1;marginBottom=0;whiteSpace=wrap;html=1;" parent="WIyWlLk6GJQsqaUBKTNV-1" vertex="1">
          <mxGeometry x="900" y="-1120" width="160" height="108" as="geometry" />
        </mxCell>
        <mxCell id="yadymEA7RUQ70bokF_j9-41" value="- url: string&lt;div&gt;-indicador: int&lt;/div&gt;" style="text;strokeColor=none;fillColor=none;align=left;verticalAlign=top;spacingLeft=4;spacingRight=4;overflow=hidden;rotatable=0;points=[[0,0.5],[1,0.5]];portConstraint=eastwest;whiteSpace=wrap;html=1;" parent="yadymEA7RUQ70bokF_j9-36" vertex="1">
          <mxGeometry y="26" width="160" height="44" as="geometry" />
        </mxCell>
        <mxCell id="yadymEA7RUQ70bokF_j9-38" value="" style="line;strokeWidth=1;fillColor=none;align=left;verticalAlign=middle;spacingTop=-1;spacingLeft=3;spacingRight=3;rotatable=0;labelPosition=right;points=[];portConstraint=eastwest;strokeColor=inherit;" parent="yadymEA7RUQ70bokF_j9-36" vertex="1">
          <mxGeometry y="70" width="160" height="8" as="geometry" />
        </mxCell>
        <mxCell id="yadymEA7RUQ70bokF_j9-39" value="+Hacer_Request()" style="text;strokeColor=none;fillColor=none;align=left;verticalAlign=top;spacingLeft=4;spacingRight=4;overflow=hidden;rotatable=0;points=[[0,0.5],[1,0.5]];portConstraint=eastwest;whiteSpace=wrap;html=1;" parent="yadymEA7RUQ70bokF_j9-36" vertex="1">
          <mxGeometry y="78" width="160" height="30" as="geometry" />
        </mxCell>
        <mxCell id="yadymEA7RUQ70bokF_j9-47" value="Gestion de Reactivos" style="swimlane;fontStyle=1;align=center;verticalAlign=top;childLayout=stackLayout;horizontal=1;startSize=26;horizontalStack=0;resizeParent=1;resizeParentMax=0;resizeLast=0;collapsible=1;marginBottom=0;whiteSpace=wrap;html=1;" parent="WIyWlLk6GJQsqaUBKTNV-1" vertex="1">
          <mxGeometry x="1035" y="-729" width="290" height="290" as="geometry" />
        </mxCell>
        <mxCell id="os_pkaWNRZKT6Vy84ycI-0" value="&lt;div&gt;#id_reactivo: int&lt;/div&gt;&lt;div&gt;#nombre: string&lt;/div&gt;&lt;div&gt;#descripcion: string&lt;/div&gt;&lt;div&gt;#costo: float&lt;/div&gt;&lt;div&gt;#categoria: string&lt;/div&gt;&lt;div&gt;#inventario_disponible: int&lt;/div&gt;&lt;div&gt;#unidad_de_medicion: string&lt;/div&gt;&lt;div&gt;#fecha_de_caducidad: string&lt;/div&gt;&lt;div&gt;#minimo_sugerido: int&lt;/div&gt;&lt;div&gt;#conversion_disponible: conversiones[]&lt;/div&gt;&lt;div&gt;#reactivos: reactivos[]&lt;/div&gt;" style="text;strokeColor=none;fillColor=none;align=left;verticalAlign=top;spacingLeft=4;spacingRight=4;overflow=hidden;rotatable=0;points=[[0,0.5],[1,0.5]];portConstraint=eastwest;whiteSpace=wrap;html=1;" parent="yadymEA7RUQ70bokF_j9-47" vertex="1">
          <mxGeometry y="26" width="290" height="164" as="geometry" />
        </mxCell>
        <mxCell id="yadymEA7RUQ70bokF_j9-49" value="" style="line;strokeWidth=1;fillColor=none;align=left;verticalAlign=middle;spacingTop=-1;spacingLeft=3;spacingRight=3;rotatable=0;labelPosition=right;points=[];portConstraint=eastwest;strokeColor=inherit;" parent="yadymEA7RUQ70bokF_j9-47" vertex="1">
          <mxGeometry y="190" width="290" height="8" as="geometry" />
        </mxCell>
        <mxCell id="yadymEA7RUQ70bokF_j9-50" value="&lt;div&gt;+Analizador_de_Informacion_Reactivo(): reactivo[]&lt;/div&gt;+Agregar_Editar_o_Eliminar_Reactivo(): string&lt;div&gt;+Estatus_de_los_Reactivos(): string&lt;/div&gt;&lt;div&gt;&lt;span style=&quot;background-color: transparent; color: light-dark(rgb(0, 0, 0), rgb(255, 255, 255));&quot;&gt;+Cambiar_la_UnidadMedia(): string&lt;/span&gt;&lt;/div&gt;&lt;div&gt;&lt;span style=&quot;background-color: transparent; color: light-dark(rgb(0, 0, 0), rgb(255, 255, 255));&quot;&gt;+Configurar_Reactivo()&lt;/span&gt;&lt;/div&gt;" style="text;strokeColor=none;fillColor=none;align=left;verticalAlign=top;spacingLeft=4;spacingRight=4;overflow=hidden;rotatable=0;points=[[0,0.5],[1,0.5]];portConstraint=eastwest;whiteSpace=wrap;html=1;" parent="yadymEA7RUQ70bokF_j9-47" vertex="1">
          <mxGeometry y="198" width="290" height="92" as="geometry" />
        </mxCell>
        <mxCell id="yadymEA7RUQ70bokF_j9-51" value="Gestion de Experimentos" style="swimlane;fontStyle=1;align=center;verticalAlign=top;childLayout=stackLayout;horizontal=1;startSize=26;horizontalStack=0;resizeParent=1;resizeParentMax=0;resizeLast=0;collapsible=1;marginBottom=0;whiteSpace=wrap;html=1;" parent="WIyWlLk6GJQsqaUBKTNV-1" vertex="1">
          <mxGeometry x="330" y="-740" width="320" height="310" as="geometry" />
        </mxCell>
        <mxCell id="yyuxzGuzA3rOYkuHmAD6-1" value="#id_experimento: int&lt;div&gt;#receta_id: int&lt;/div&gt;&lt;div&gt;#personas responsables: personas[]&lt;/div&gt;&lt;div&gt;#fecha: string&lt;/div&gt;&lt;div&gt;#costo asociado: int&lt;/div&gt;&lt;div&gt;#resultado: string&lt;/div&gt;&lt;div&gt;#id receta: int&lt;div&gt;#nombre: string&lt;/div&gt;&lt;div&gt;#objetivo: string&lt;/div&gt;&lt;div&gt;#reactivos utilizados: reactivos[]&lt;/div&gt;&lt;div&gt;#procedimiento: prosesos[]&lt;/div&gt;&lt;div&gt;#valores_a_medir: valores[]&lt;/div&gt;&lt;/div&gt;" style="text;strokeColor=none;fillColor=none;align=left;verticalAlign=top;spacingLeft=4;spacingRight=4;overflow=hidden;rotatable=0;points=[[0,0.5],[1,0.5]];portConstraint=eastwest;whiteSpace=wrap;html=1;" parent="yadymEA7RUQ70bokF_j9-51" vertex="1">
          <mxGeometry y="26" width="320" height="184" as="geometry" />
        </mxCell>
        <mxCell id="yadymEA7RUQ70bokF_j9-53" value="" style="line;strokeWidth=1;fillColor=none;align=left;verticalAlign=middle;spacingTop=-1;spacingLeft=3;spacingRight=3;rotatable=0;labelPosition=right;points=[];portConstraint=eastwest;strokeColor=inherit;" parent="yadymEA7RUQ70bokF_j9-51" vertex="1">
          <mxGeometry y="210" width="320" height="8" as="geometry" />
        </mxCell>
        <mxCell id="os_pkaWNRZKT6Vy84ycI-11" value="+Analizador_de_Informacion_Receta(): receta[]&lt;div&gt;+Analizador_de_Experimento(): experimento[]&lt;/div&gt;&lt;div&gt;+Agregar_Editar_o_Eliminar_Experimento(): string&lt;/div&gt;&lt;div&gt;+Pre_preparacion_Del_Experimento(): pre_preparacion[]&lt;/div&gt;&lt;div&gt;+Get_Resultado(): resultado[]&lt;/div&gt;&lt;div&gt;+Configurar_Experimento()&lt;/div&gt;" style="text;strokeColor=none;fillColor=none;align=left;verticalAlign=top;spacingLeft=4;spacingRight=4;overflow=hidden;rotatable=0;points=[[0,0.5],[1,0.5]];portConstraint=eastwest;whiteSpace=wrap;html=1;" parent="yadymEA7RUQ70bokF_j9-51" vertex="1">
          <mxGeometry y="218" width="320" height="92" as="geometry" />
        </mxCell>
        <mxCell id="yadymEA7RUQ70bokF_j9-55" value="Gestion de Resultados" style="swimlane;fontStyle=1;align=center;verticalAlign=top;childLayout=stackLayout;horizontal=1;startSize=26;horizontalStack=0;resizeParent=1;resizeParentMax=0;resizeLast=0;collapsible=1;marginBottom=0;whiteSpace=wrap;html=1;" parent="WIyWlLk6GJQsqaUBKTNV-1" vertex="1">
          <mxGeometry x="380" y="-354" width="270" height="144" as="geometry" />
        </mxCell>
        <mxCell id="yadymEA7RUQ70bokF_j9-57" value="" style="line;strokeWidth=1;fillColor=none;align=left;verticalAlign=middle;spacingTop=-1;spacingLeft=3;spacingRight=3;rotatable=0;labelPosition=right;points=[];portConstraint=eastwest;strokeColor=inherit;" parent="yadymEA7RUQ70bokF_j9-55" vertex="1">
          <mxGeometry y="26" width="270" height="8" as="geometry" />
        </mxCell>
        <mxCell id="aQ2S5EROAXTRbDWwuNqQ-2" value="-resultado: resultado[]&lt;div&gt;-experimento: experimento[]&lt;/div&gt;&lt;div&gt;-receta: receta[]&lt;/div&gt;&lt;div&gt;datos_de_la_pre_preparacion: pre_preparacion[]&lt;/div&gt;" style="text;strokeColor=none;fillColor=none;align=left;verticalAlign=middle;spacingLeft=4;spacingRight=4;overflow=hidden;points=[[0,0.5],[1,0.5]];portConstraint=eastwest;rotatable=0;whiteSpace=wrap;html=1;" parent="yadymEA7RUQ70bokF_j9-55" vertex="1">
          <mxGeometry y="34" width="270" height="84" as="geometry" />
        </mxCell>
        <mxCell id="yadymEA7RUQ70bokF_j9-58" value="+Dar_Resultados: bool" style="text;strokeColor=none;fillColor=none;align=left;verticalAlign=top;spacingLeft=4;spacingRight=4;overflow=hidden;rotatable=0;points=[[0,0.5],[1,0.5]];portConstraint=eastwest;whiteSpace=wrap;html=1;" parent="yadymEA7RUQ70bokF_j9-55" vertex="1">
          <mxGeometry y="118" width="270" height="26" as="geometry" />
        </mxCell>
        <mxCell id="yadymEA7RUQ70bokF_j9-59" value="Indicador de Gestion" style="swimlane;fontStyle=1;align=center;verticalAlign=top;childLayout=stackLayout;horizontal=1;startSize=26;horizontalStack=0;resizeParent=1;resizeParentMax=0;resizeLast=0;collapsible=1;marginBottom=0;whiteSpace=wrap;html=1;" parent="WIyWlLk6GJQsqaUBKTNV-1" vertex="1">
          <mxGeometry x="810" y="-430" width="290" height="220" as="geometry" />
        </mxCell>
        <mxCell id="yadymEA7RUQ70bokF_j9-60" value="-reactivo: reactivo[]&lt;div&gt;-experimento: []&lt;/div&gt;&lt;div&gt;-informacion_del_experimento: informacion[]&lt;/div&gt;" style="text;strokeColor=none;fillColor=none;align=left;verticalAlign=top;spacingLeft=4;spacingRight=4;overflow=hidden;rotatable=0;points=[[0,0.5],[1,0.5]];portConstraint=eastwest;whiteSpace=wrap;html=1;" parent="yadymEA7RUQ70bokF_j9-59" vertex="1">
          <mxGeometry y="26" width="290" height="54" as="geometry" />
        </mxCell>
        <mxCell id="yadymEA7RUQ70bokF_j9-61" value="" style="line;strokeWidth=1;fillColor=none;align=left;verticalAlign=middle;spacingTop=-1;spacingLeft=3;spacingRight=3;rotatable=0;labelPosition=right;points=[];portConstraint=eastwest;strokeColor=inherit;" parent="yadymEA7RUQ70bokF_j9-59" vertex="1">
          <mxGeometry y="80" width="290" height="8" as="geometry" />
        </mxCell>
        <mxCell id="yadymEA7RUQ70bokF_j9-62" value="+Investigador_que_Utiliza_Mas_el_Lab(): string&lt;div&gt;+Experimento_Mas__Hecho(): string&lt;/div&gt;&lt;div&gt;&lt;div&gt;+Experimento_Menos__Hecho(): string&lt;/div&gt;&lt;div&gt;+Reactivos_con_Mas_Alta_Rotacion(): string&lt;/div&gt;&lt;div&gt;+Reactivos_que_Mas_Se_Pierden(): string&lt;/div&gt;&lt;div&gt;+Reactivo_que_Mas_se_Vence(): string&lt;/div&gt;&lt;div&gt;+Veces_que_Falto_un_Reactivo(): int&lt;/div&gt;&lt;div&gt;+Realizar_Grafico()&lt;/div&gt;&lt;div&gt;&lt;br&gt;&lt;/div&gt;&lt;/div&gt;" style="text;strokeColor=none;fillColor=none;align=left;verticalAlign=top;spacingLeft=4;spacingRight=4;overflow=hidden;rotatable=0;points=[[0,0.5],[1,0.5]];portConstraint=eastwest;whiteSpace=wrap;html=1;" parent="yadymEA7RUQ70bokF_j9-59" vertex="1">
          <mxGeometry y="88" width="290" height="132" as="geometry" />
        </mxCell>
        <mxCell id="yadymEA7RUQ70bokF_j9-76" value="&lt;b&gt;Reactivos&lt;/b&gt;" style="swimlane;fontStyle=0;childLayout=stackLayout;horizontal=1;startSize=26;fillColor=none;horizontalStack=0;resizeParent=1;resizeParentMax=0;resizeLast=0;collapsible=1;marginBottom=0;whiteSpace=wrap;html=1;shadow=0;" parent="WIyWlLk6GJQsqaUBKTNV-1" vertex="1">
          <mxGeometry x="1060" y="-990" width="220" height="240" as="geometry" />
        </mxCell>
        <mxCell id="yadymEA7RUQ70bokF_j9-48" value="&lt;div&gt;#id reactivo: int&lt;/div&gt;&lt;div&gt;#nombre: string&lt;/div&gt;&lt;div&gt;#descripcion: string&lt;/div&gt;&lt;div&gt;#costo: float&lt;/div&gt;&lt;div&gt;#categoria: string&lt;/div&gt;&lt;div&gt;#inventario_disponible: int&lt;/div&gt;&lt;div&gt;#unidad_de_medicion: string&lt;/div&gt;&lt;div&gt;#fecha_de_caducidad: string&lt;/div&gt;&lt;div&gt;#minimo_sugerido: int&lt;/div&gt;&lt;div&gt;#conversion_disponible: conversiones[]&lt;/div&gt;&lt;div&gt;#reactivos: reactivos[]&lt;/div&gt;" style="text;strokeColor=none;fillColor=none;align=left;verticalAlign=top;spacingLeft=4;spacingRight=4;overflow=hidden;rotatable=0;points=[[0,0.5],[1,0.5]];portConstraint=eastwest;whiteSpace=wrap;html=1;" parent="yadymEA7RUQ70bokF_j9-76" vertex="1">
          <mxGeometry y="26" width="220" height="164" as="geometry" />
        </mxCell>
        <mxCell id="t76l17fFvI520k2RQgG0-10" value="" style="line;strokeWidth=1;fillColor=none;align=left;verticalAlign=middle;spacingTop=-1;spacingLeft=3;spacingRight=3;rotatable=0;labelPosition=right;points=[];portConstraint=eastwest;strokeColor=inherit;" parent="yadymEA7RUQ70bokF_j9-76" vertex="1">
          <mxGeometry y="190" width="220" height="8" as="geometry" />
        </mxCell>
        <mxCell id="t76l17fFvI520k2RQgG0-11" value="&lt;div&gt;+Inicio_del_Porgrama(bool):&lt;/div&gt;+Lector_de_datos(bool):" style="text;strokeColor=none;fillColor=none;align=left;verticalAlign=top;spacingLeft=4;spacingRight=4;overflow=hidden;rotatable=0;points=[[0,0.5],[1,0.5]];portConstraint=eastwest;whiteSpace=wrap;html=1;" parent="yadymEA7RUQ70bokF_j9-76" vertex="1">
          <mxGeometry y="198" width="220" height="42" as="geometry" />
        </mxCell>
        <mxCell id="yyuxzGuzA3rOYkuHmAD6-4" value="" style="endArrow=block;endSize=16;endFill=0;html=1;rounded=0;exitX=1;exitY=0.5;exitDx=0;exitDy=0;entryX=0.5;entryY=0;entryDx=0;entryDy=0;" parent="WIyWlLk6GJQsqaUBKTNV-1" source="yadymEA7RUQ70bokF_j9-83" target="yadymEA7RUQ70bokF_j9-51" edge="1">
          <mxGeometry width="160" relative="1" as="geometry">
            <mxPoint x="250" y="-830" as="sourcePoint" />
            <mxPoint x="410" y="-830" as="targetPoint" />
            <Array as="points">
              <mxPoint x="620" y="-934" />
              <mxPoint x="620" y="-770" />
              <mxPoint x="490" y="-770" />
            </Array>
          </mxGeometry>
        </mxCell>
        <mxCell id="yyuxzGuzA3rOYkuHmAD6-5" value="" style="endArrow=block;endSize=16;endFill=0;html=1;rounded=0;exitX=0;exitY=0.5;exitDx=0;exitDy=0;entryX=0.5;entryY=0;entryDx=0;entryDy=0;" parent="WIyWlLk6GJQsqaUBKTNV-1" source="yadymEA7RUQ70bokF_j9-85" target="yadymEA7RUQ70bokF_j9-51" edge="1">
          <mxGeometry width="160" relative="1" as="geometry">
            <mxPoint x="610" y="-930" as="sourcePoint" />
            <mxPoint x="590" y="-810" as="targetPoint" />
            <Array as="points">
              <mxPoint x="620" y="-892" />
              <mxPoint x="620" y="-770" />
              <mxPoint x="490" y="-770" />
            </Array>
          </mxGeometry>
        </mxCell>
        <mxCell id="t76l17fFvI520k2RQgG0-0" value="Receta" style="swimlane;fontStyle=1;align=center;verticalAlign=top;childLayout=stackLayout;horizontal=1;startSize=26;horizontalStack=0;resizeParent=1;resizeParentMax=0;resizeLast=0;collapsible=1;marginBottom=0;whiteSpace=wrap;html=1;" parent="WIyWlLk6GJQsqaUBKTNV-1" vertex="1">
          <mxGeometry x="390" y="-1012" width="200" height="164" as="geometry" />
        </mxCell>
        <mxCell id="yadymEA7RUQ70bokF_j9-83" value="#id receta: int&lt;div&gt;#nombre: string&lt;/div&gt;&lt;div&gt;#objetivo: string&lt;/div&gt;&lt;div&gt;#reactivos utilizados: reactivos[]&lt;/div&gt;&lt;div&gt;#procedimiento: prosesos[]&lt;/div&gt;&lt;div&gt;#valores_a_medir: valores[]&lt;/div&gt;" style="text;strokeColor=none;fillColor=none;align=left;verticalAlign=top;spacingLeft=4;spacingRight=4;overflow=hidden;rotatable=0;points=[[0,0.5],[1,0.5]];portConstraint=eastwest;whiteSpace=wrap;html=1;" parent="t76l17fFvI520k2RQgG0-0" vertex="1">
          <mxGeometry y="26" width="200" height="104" as="geometry" />
        </mxCell>
        <mxCell id="t76l17fFvI520k2RQgG0-2" value="" style="line;strokeWidth=1;fillColor=none;align=left;verticalAlign=middle;spacingTop=-1;spacingLeft=3;spacingRight=3;rotatable=0;labelPosition=right;points=[];portConstraint=eastwest;strokeColor=inherit;" parent="t76l17fFvI520k2RQgG0-0" vertex="1">
          <mxGeometry y="130" width="200" height="8" as="geometry" />
        </mxCell>
        <mxCell id="t76l17fFvI520k2RQgG0-3" value="+Lector_de_datos()" style="text;strokeColor=none;fillColor=none;align=left;verticalAlign=top;spacingLeft=4;spacingRight=4;overflow=hidden;rotatable=0;points=[[0,0.5],[1,0.5]];portConstraint=eastwest;whiteSpace=wrap;html=1;" parent="t76l17fFvI520k2RQgG0-0" vertex="1">
          <mxGeometry y="138" width="200" height="26" as="geometry" />
        </mxCell>
        <mxCell id="t76l17fFvI520k2RQgG0-4" value="Experimento" style="swimlane;fontStyle=1;align=center;verticalAlign=top;childLayout=stackLayout;horizontal=1;startSize=26;horizontalStack=0;resizeParent=1;resizeParentMax=0;resizeLast=0;collapsible=1;marginBottom=0;whiteSpace=wrap;html=1;" parent="WIyWlLk6GJQsqaUBKTNV-1" vertex="1">
          <mxGeometry x="730" y="-970" width="220" height="164" as="geometry" />
        </mxCell>
        <mxCell id="yadymEA7RUQ70bokF_j9-85" value="#id_experimento: int&lt;div&gt;#receta_id: int&lt;/div&gt;&lt;div&gt;#personas responsables: personas[]&lt;/div&gt;&lt;div&gt;#fecha: string&lt;/div&gt;&lt;div&gt;#costo asociado: int&lt;/div&gt;&lt;div&gt;#resultado: string&lt;/div&gt;" style="text;strokeColor=none;fillColor=none;align=left;verticalAlign=top;spacingLeft=4;spacingRight=4;overflow=hidden;rotatable=0;points=[[0,0.5],[1,0.5]];portConstraint=eastwest;whiteSpace=wrap;html=1;" parent="t76l17fFvI520k2RQgG0-4" vertex="1">
          <mxGeometry y="26" width="220" height="104" as="geometry" />
        </mxCell>
        <mxCell id="t76l17fFvI520k2RQgG0-6" value="" style="line;strokeWidth=1;fillColor=none;align=left;verticalAlign=middle;spacingTop=-1;spacingLeft=3;spacingRight=3;rotatable=0;labelPosition=right;points=[];portConstraint=eastwest;strokeColor=inherit;" parent="t76l17fFvI520k2RQgG0-4" vertex="1">
          <mxGeometry y="130" width="220" height="8" as="geometry" />
        </mxCell>
        <mxCell id="t76l17fFvI520k2RQgG0-7" value="+Lector_de_datos()" style="text;strokeColor=none;fillColor=none;align=left;verticalAlign=top;spacingLeft=4;spacingRight=4;overflow=hidden;rotatable=0;points=[[0,0.5],[1,0.5]];portConstraint=eastwest;whiteSpace=wrap;html=1;" parent="t76l17fFvI520k2RQgG0-4" vertex="1">
          <mxGeometry y="138" width="220" height="26" as="geometry" />
        </mxCell>
        <mxCell id="t76l17fFvI520k2RQgG0-15" style="edgeStyle=orthogonalEdgeStyle;rounded=0;orthogonalLoop=1;jettySize=auto;html=1;exitX=1;exitY=0.5;exitDx=0;exitDy=0;entryX=0;entryY=0.485;entryDx=0;entryDy=0;entryPerimeter=0;" parent="WIyWlLk6GJQsqaUBKTNV-1" source="aQ2S5EROAXTRbDWwuNqQ-2" target="yadymEA7RUQ70bokF_j9-62" edge="1">
          <mxGeometry relative="1" as="geometry">
            <mxPoint x="840" y="-280" as="targetPoint" />
            <Array as="points" />
          </mxGeometry>
        </mxCell>
        <mxCell id="t76l17fFvI520k2RQgG0-16" style="edgeStyle=orthogonalEdgeStyle;rounded=0;orthogonalLoop=1;jettySize=auto;html=1;exitX=1;exitY=0.5;exitDx=0;exitDy=0;entryX=1;entryY=0.5;entryDx=0;entryDy=0;" parent="WIyWlLk6GJQsqaUBKTNV-1" source="os_pkaWNRZKT6Vy84ycI-0" target="yadymEA7RUQ70bokF_j9-62" edge="1">
          <mxGeometry relative="1" as="geometry">
            <mxPoint x="880" y="-460" as="targetPoint" />
          </mxGeometry>
        </mxCell>
        <mxCell id="t76l17fFvI520k2RQgG0-18" value="" style="endArrow=block;endSize=16;endFill=0;html=1;rounded=0;exitX=0;exitY=0.5;exitDx=0;exitDy=0;entryX=0.001;entryY=0.331;entryDx=0;entryDy=0;entryPerimeter=0;" parent="WIyWlLk6GJQsqaUBKTNV-1" source="yadymEA7RUQ70bokF_j9-48" target="os_pkaWNRZKT6Vy84ycI-0" edge="1">
          <mxGeometry width="160" relative="1" as="geometry">
            <mxPoint x="1450" y="-960" as="sourcePoint" />
            <mxPoint x="1610" y="-960" as="targetPoint" />
            <Array as="points">
              <mxPoint x="1000" y="-882" />
              <mxPoint x="1000" y="-650" />
            </Array>
          </mxGeometry>
        </mxCell>
        <mxCell id="slcs6eY3vTVtAFyWJ08a-0" value="" style="endArrow=diamondThin;endFill=1;endSize=24;html=1;rounded=0;exitX=0;exitY=0.5;exitDx=0;exitDy=0;entryX=0.5;entryY=0;entryDx=0;entryDy=0;" parent="WIyWlLk6GJQsqaUBKTNV-1" source="yadymEA7RUQ70bokF_j9-41" target="t76l17fFvI520k2RQgG0-0" edge="1">
          <mxGeometry width="160" relative="1" as="geometry">
            <mxPoint x="800" y="-1070" as="sourcePoint" />
            <mxPoint x="960" y="-1070" as="targetPoint" />
            <Array as="points">
              <mxPoint x="490" y="-1072" />
            </Array>
          </mxGeometry>
        </mxCell>
        <mxCell id="slcs6eY3vTVtAFyWJ08a-1" value="" style="endArrow=diamondThin;endFill=1;endSize=24;html=1;rounded=0;exitX=0;exitY=0.5;exitDx=0;exitDy=0;entryX=0.5;entryY=0;entryDx=0;entryDy=0;" parent="WIyWlLk6GJQsqaUBKTNV-1" source="yadymEA7RUQ70bokF_j9-41" target="t76l17fFvI520k2RQgG0-4" edge="1">
          <mxGeometry width="160" relative="1" as="geometry">
            <mxPoint x="700" y="-1000" as="sourcePoint" />
            <mxPoint x="860" y="-1000" as="targetPoint" />
            <Array as="points">
              <mxPoint x="840" y="-1072" />
            </Array>
          </mxGeometry>
        </mxCell>
        <mxCell id="slcs6eY3vTVtAFyWJ08a-2" value="" style="endArrow=diamondThin;endFill=1;endSize=24;html=1;rounded=0;exitX=1;exitY=0.5;exitDx=0;exitDy=0;entryX=0.5;entryY=0;entryDx=0;entryDy=0;" parent="WIyWlLk6GJQsqaUBKTNV-1" source="yadymEA7RUQ70bokF_j9-41" target="yadymEA7RUQ70bokF_j9-76" edge="1">
          <mxGeometry width="160" relative="1" as="geometry">
            <mxPoint x="1140" y="-1060" as="sourcePoint" />
            <mxPoint x="1300" y="-1060" as="targetPoint" />
            <Array as="points">
              <mxPoint x="1170" y="-1072" />
            </Array>
          </mxGeometry>
        </mxCell>
        <mxCell id="slcs6eY3vTVtAFyWJ08a-8" style="edgeStyle=orthogonalEdgeStyle;rounded=0;orthogonalLoop=1;jettySize=auto;html=1;exitX=0;exitY=0.5;exitDx=0;exitDy=0;" parent="WIyWlLk6GJQsqaUBKTNV-1" source="yyuxzGuzA3rOYkuHmAD6-1" target="aQ2S5EROAXTRbDWwuNqQ-2" edge="1">
          <mxGeometry relative="1" as="geometry">
            <mxPoint x="330" y="-562" as="sourcePoint" />
            <Array as="points">
              <mxPoint x="310" y="-622" />
              <mxPoint x="310" y="-284" />
            </Array>
          </mxGeometry>
        </mxCell>
        <mxCell id="slcs6eY3vTVtAFyWJ08a-11" style="edgeStyle=orthogonalEdgeStyle;rounded=0;orthogonalLoop=1;jettySize=auto;html=1;entryX=0.5;entryY=0;entryDx=0;entryDy=0;" parent="WIyWlLk6GJQsqaUBKTNV-1" target="yadymEA7RUQ70bokF_j9-59" edge="1">
          <mxGeometry relative="1" as="geometry">
            <mxPoint x="650" y="-562" as="sourcePoint" />
          </mxGeometry>
        </mxCell>
        <mxCell id="slcs6eY3vTVtAFyWJ08a-12" value="Laboratorio" style="swimlane;fontStyle=1;align=center;verticalAlign=top;childLayout=stackLayout;horizontal=1;startSize=26;horizontalStack=0;resizeParent=1;resizeParentMax=0;resizeLast=0;collapsible=1;marginBottom=0;whiteSpace=wrap;html=1;" parent="WIyWlLk6GJQsqaUBKTNV-1" vertex="1">
          <mxGeometry x="750" y="-170" width="160" height="86" as="geometry" />
        </mxCell>
        <mxCell id="slcs6eY3vTVtAFyWJ08a-13" value="+ field: type" style="text;strokeColor=none;fillColor=none;align=left;verticalAlign=top;spacingLeft=4;spacingRight=4;overflow=hidden;rotatable=0;points=[[0,0.5],[1,0.5]];portConstraint=eastwest;whiteSpace=wrap;html=1;" parent="slcs6eY3vTVtAFyWJ08a-12" vertex="1">
          <mxGeometry y="26" width="160" height="26" as="geometry" />
        </mxCell>
        <mxCell id="slcs6eY3vTVtAFyWJ08a-14" value="" style="line;strokeWidth=1;fillColor=none;align=left;verticalAlign=middle;spacingTop=-1;spacingLeft=3;spacingRight=3;rotatable=0;labelPosition=right;points=[];portConstraint=eastwest;strokeColor=inherit;" parent="slcs6eY3vTVtAFyWJ08a-12" vertex="1">
          <mxGeometry y="52" width="160" height="8" as="geometry" />
        </mxCell>
        <mxCell id="slcs6eY3vTVtAFyWJ08a-15" value="+ method(type): type" style="text;strokeColor=none;fillColor=none;align=left;verticalAlign=top;spacingLeft=4;spacingRight=4;overflow=hidden;rotatable=0;points=[[0,0.5],[1,0.5]];portConstraint=eastwest;whiteSpace=wrap;html=1;" parent="slcs6eY3vTVtAFyWJ08a-12" vertex="1">
          <mxGeometry y="60" width="160" height="26" as="geometry" />
        </mxCell>
        <mxCell id="LU0Vcx3iYuOPcYGcIiNK-2" value="" style="endArrow=diamondThin;endFill=1;endSize=24;html=1;rounded=0;exitX=0;exitY=0.5;exitDx=0;exitDy=0;entryX=1;entryY=0.5;entryDx=0;entryDy=0;" parent="WIyWlLk6GJQsqaUBKTNV-1" source="os_pkaWNRZKT6Vy84ycI-0" target="yyuxzGuzA3rOYkuHmAD6-1" edge="1">
          <mxGeometry width="160" relative="1" as="geometry">
            <mxPoint x="710" y="-650" as="sourcePoint" />
            <mxPoint x="870" y="-650" as="targetPoint" />
            <Array as="points">
              <mxPoint x="760" y="-621" />
            </Array>
          </mxGeometry>
        </mxCell>
      </root>
    </mxGraphModel>
  </diagram>
</mxfile>
